<svg width="102" height="32" viewBox="0 0 102 32" fill="none" xmlns="http://www.w3.org/2000/svg">
<g clip-path="url(#clip0_228_24822)">
<path d="M17.8008 15.2375C20.1008 16.5375 22.1008 17.7375 24.3008 19.0375V11.4375C22.2008 12.7375 20.1008 13.9375 17.8008 15.2375Z" fill="#0739A4"/>
<path d="M26.8 23.4375L20 27.5375L15.4 30.3375C15 30.5375 14.7 30.7375 14.4 30.9375C13.7 31.3375 13 31.3375 12.3 30.9375C8.5 28.6375 4.8 26.4375 1.1 24.1375C0.399999 23.7375 0 23.0375 0 22.1375C0 18.0375 0 13.9375 0 9.83745C0 8.93745 0.399999 8.33745 1.1 7.83745C4.8 5.63745 8.5 3.43745 12.1 1.13745C12.9 0.637451 13.7 0.637451 14.5 1.13745C16 2.03745 17.4 2.93745 18.9 3.83745L19.1 4.03745L25.6 7.93745H25.5L24 8.73745L23.5 9.03745L22.9 9.43745L22.5 9.23745L19.3 7.33745C17.5 6.23745 15.6 5.13745 13.8 4.03745C13.4 3.83745 13.2 3.83745 12.8 4.03745C9.6 6.03745 6.3 7.93745 3.1 9.93745C2.7 10.0375 2.6 10.2375 2.6 10.6375C2.6 14.2375 2.6 17.7374 2.6 21.3375C2.6 21.7374 2.7 21.9375 3.1 22.1375C6.4 24.1375 9.7 26.0375 12.9 28.0375C13.2 28.2375 13.4 28.2375 13.8 28.0375C15.3 27.1375 16.9 26.1375 18.4 25.2375L19.5 24.6375L23 22.5375L24.3 21.7375L24.9 22.0375L25 22.1375L26.7 23.1375L26.8 23.4375Z" fill="#0739A4"/>
<path d="M21.0992 20.0374L20.1992 20.6374L17.6992 22.1374C16.8992 22.6374 16.1992 23.0374 15.3992 23.5374C14.9992 23.8374 14.4992 24.0374 14.0992 24.3374C13.5992 24.6374 12.9992 24.6374 12.3992 24.3374C10.3992 23.1374 8.29922 21.8374 6.29922 20.6374C5.89922 20.3374 5.69922 19.9374 5.69922 19.3374C5.69922 17.0374 5.69922 14.8374 5.69922 12.5374C5.69922 11.9374 5.89922 11.5374 6.39922 11.2374C8.39922 9.9374 10.4992 8.7374 12.4992 7.4374C12.9992 7.1374 13.4992 7.1374 13.8992 7.4374C14.3992 7.7374 14.8992 8.0374 15.3992 8.3374L16.9992 9.3374L19.6992 11.0374L19.8992 11.1374H19.7992L18.5992 11.8374L17.2992 12.6374L17.1992 12.7374L16.7992 12.5374C15.6992 11.9374 14.5992 11.2374 13.5992 10.5374C13.2992 10.3374 13.0992 10.3374 12.7992 10.5374C11.3992 11.4374 9.99922 12.2374 8.69922 13.1374C8.49922 13.2374 8.29922 13.5374 8.29922 13.7374C8.29922 15.2374 8.29922 16.8374 8.29922 18.3374C8.29922 18.6374 8.39922 18.8374 8.69922 19.0374C10.0992 19.8374 11.3992 20.7374 12.7992 21.5374C13.0992 21.7374 13.2992 21.7374 13.5992 21.5374C13.7992 21.4374 13.9992 21.3374 14.1992 21.2374H14.2992L17.8992 18.9374L18.3992 18.6374L20.5992 19.9374L21.0992 20.0374Z" fill="#0739A4"/>
<path d="M39.5306 13.9039C40.028 13.7678 40.4727 13.5597 40.8608 13.2758C41.249 12.9939 41.5599 12.6283 41.7897 12.1811C42.0196 11.7339 42.1345 11.2069 42.1345 10.5964C42.1345 9.83999 41.9555 9.19249 41.6013 8.65388C41.2452 8.11721 40.7063 7.74194 39.9828 7.5261C40.5085 7.26555 40.906 6.93305 41.1736 6.52471C41.4412 6.11832 41.5768 5.60888 41.5768 4.99832C41.5768 4.43249 41.4864 3.95805 41.3055 3.57305C41.1246 3.18805 40.8703 2.88082 40.5405 2.64944C40.2127 2.41805 39.817 2.25082 39.3573 2.14971C38.8975 2.0486 38.3869 1.99805 37.8292 1.99805H32.3086V14.1061H37.9931C38.5188 14.1061 39.0313 14.038 39.5287 13.9019L39.5306 13.9039ZM34.8899 4.06888H37.3054C37.5353 4.06888 37.7576 4.08832 37.9705 4.12916C38.1834 4.16805 38.3737 4.23999 38.5377 4.3411C38.7016 4.44221 38.8335 4.58416 38.9314 4.76499C39.0294 4.94582 39.0803 5.17721 39.0803 5.4611C39.0803 5.97055 38.9314 6.33805 38.6356 6.5636C38.3398 6.78916 37.9611 6.90194 37.5014 6.90194H34.888V4.07082L34.8899 4.06888ZM34.8899 12.0392V8.7161H37.6992C38.2588 8.7161 38.7072 8.84832 39.0464 9.11471C39.3855 9.3811 39.5551 9.82444 39.5551 10.4467C39.5551 10.7636 39.5023 11.0242 39.3987 11.2264C39.2951 11.4305 39.1557 11.5919 38.9804 11.7105C38.8052 11.8292 38.6017 11.9147 38.3718 11.9653C38.142 12.0158 37.9008 12.0411 37.6483 12.0411H34.888L34.8899 12.0392Z" fill="#0739A4"/>
<path d="M45.0657 14.0049C45.6027 14.2188 46.2056 14.3277 46.8726 14.3277C47.5396 14.3277 48.1463 14.2208 48.6889 14.0049C49.2316 13.7891 49.6932 13.4819 50.0776 13.0813C50.4601 12.6808 50.7559 12.1966 50.965 11.6308C51.1723 11.0649 51.2778 10.433 51.2778 9.73104C51.2778 9.0291 51.1742 8.39521 50.965 7.82354C50.7559 7.25187 50.4619 6.76576 50.0776 6.36521C49.6932 5.96465 49.2316 5.65354 48.6889 5.43187C48.1463 5.21021 47.5415 5.10132 46.8726 5.10132C46.2037 5.10132 45.6008 5.21215 45.0657 5.43187C44.5287 5.6516 44.069 5.96271 43.6846 6.36521C43.3002 6.76576 43.0044 7.25382 42.7971 7.82354C42.588 8.39521 42.4844 9.03104 42.4844 9.73104C42.4844 10.431 42.588 11.0649 42.7971 11.6308C43.0044 12.1966 43.3002 12.6788 43.6846 13.0813C44.0671 13.4819 44.5287 13.791 45.0657 14.0049ZM44.9168 8.69854C44.9828 8.36021 45.0939 8.06076 45.2541 7.80021C45.4124 7.53965 45.6234 7.32771 45.8872 7.16437C46.151 7.00104 46.4788 6.91937 46.8726 6.91937C47.2664 6.91937 47.598 7.00104 47.8674 7.16437C48.135 7.32771 48.3498 7.53965 48.5081 7.80021C48.6663 8.06076 48.7794 8.36021 48.8453 8.69854C48.9113 9.03687 48.9433 9.38299 48.9433 9.73299C48.9433 10.083 48.9113 10.4252 48.8453 10.7597C48.7794 11.0941 48.6663 11.3935 48.5081 11.658C48.3498 11.9244 48.135 12.1363 47.8674 12.2938C47.598 12.4513 47.2683 12.531 46.8726 12.531C46.4769 12.531 46.1491 12.4513 45.8872 12.2938C45.6234 12.1363 45.4124 11.9244 45.2541 11.658C45.0958 11.3916 44.9828 11.0922 44.9168 10.7597C44.8509 10.4272 44.8189 10.0849 44.8189 9.73299C44.8189 9.38104 44.8509 9.03687 44.9168 8.69854Z" fill="#0739A4"/>
<path d="M54.1555 14.0049C54.6925 14.2188 55.2955 14.3277 55.9624 14.3277C56.6294 14.3277 57.2361 14.2208 57.7788 14.0049C58.3214 13.791 58.783 13.4819 59.1674 13.0813C59.5499 12.6808 59.8457 12.1966 60.0549 11.6308C60.2621 11.0649 60.3676 10.433 60.3676 9.73104C60.3676 9.0291 60.264 8.39521 60.0549 7.82354C59.8457 7.25187 59.5518 6.76576 59.1674 6.36521C58.783 5.96465 58.3214 5.65354 57.7788 5.43187C57.2361 5.21021 56.6313 5.10132 55.9624 5.10132C55.2936 5.10132 54.6906 5.21215 54.1555 5.43187C53.6185 5.6516 53.1588 5.96271 52.7744 6.36521C52.3901 6.76576 52.0942 7.25382 51.887 7.82354C51.6778 8.39521 51.5742 9.03104 51.5742 9.73104C51.5742 10.431 51.6778 11.0649 51.887 11.6308C52.0942 12.1966 52.3901 12.6788 52.7744 13.0813C53.1569 13.4819 53.6185 13.791 54.1555 14.0049ZM54.0086 8.69854C54.0745 8.36021 54.1857 8.06076 54.3458 7.80021C54.5041 7.53965 54.7151 7.32771 54.9789 7.16437C55.2427 7.00104 55.5705 6.91937 55.9643 6.91937C56.3581 6.91937 56.6897 7.00104 56.9592 7.16437C57.2267 7.32771 57.4415 7.53965 57.5998 7.80021C57.7581 8.06076 57.8711 8.36021 57.9371 8.69854C58.003 9.03687 58.035 9.38299 58.035 9.73299C58.035 10.083 58.003 10.4252 57.9371 10.7597C57.8711 11.0941 57.7581 11.3935 57.5998 11.658C57.4415 11.9244 57.2267 12.1363 56.9592 12.2938C56.6897 12.4513 56.36 12.531 55.9643 12.531C55.5687 12.531 55.2408 12.4513 54.9789 12.2938C54.7151 12.1363 54.5041 11.9244 54.3458 11.658C54.1876 11.3916 54.0745 11.0922 54.0086 10.7597C53.9426 10.4272 53.9106 10.0849 53.9106 9.73299C53.9106 9.38104 53.9426 9.03687 54.0086 8.69854Z" fill="#0739A4"/>
<path d="M63.4595 11.0883L64.362 10.19L66.6965 14.1081H69.5227L65.956 8.5625L69.161 5.34056H66.4007L63.4595 8.49444V2H61.125V14.1081H63.4595V11.0883Z" fill="#0739A4"/>
<path d="M71.9928 2H69.6602V3.98333H71.9928V2Z" fill="#0739A4"/>
<path d="M71.9928 5.34058H69.6602V14.1081H71.9928V5.34058Z" fill="#0739A4"/>
<path d="M78.6746 14.108H81.0072V8.71606C81.0072 8.17356 80.9601 7.67967 80.8678 7.23245C80.7736 6.78522 80.6134 6.408 80.3836 6.09689C80.1537 5.78578 79.839 5.54272 79.4377 5.36772C79.0383 5.19272 78.5258 5.10522 77.9021 5.10522C77.4084 5.10522 76.9261 5.22189 76.4569 5.45328C75.9859 5.68467 75.6015 6.05606 75.3057 6.56356H75.2567V5.34245H73.0391V14.1099H75.3717V9.51522C75.3717 8.62272 75.5149 7.98106 75.7994 7.59022C76.0839 7.19939 76.5436 7.00495 77.1805 7.00495C77.7401 7.00495 78.1282 7.18384 78.3468 7.53967C78.5653 7.8955 78.6746 8.43606 78.6746 9.15939V14.1119V14.108Z" fill="#0739A4"/>
<path d="M82.5038 12.5563C82.7997 12.9569 83.1784 13.2738 83.6381 13.5052C84.0979 13.7366 84.6462 13.8533 85.2811 13.8533C85.7955 13.8533 86.2854 13.7424 86.7527 13.5227C87.218 13.303 87.576 12.9608 87.8285 12.496H87.8605V13.6491C87.8718 14.2713 87.7268 14.7847 87.4253 15.193C87.1238 15.5994 86.6453 15.8035 85.9877 15.8035C85.5713 15.8035 85.2039 15.716 84.8873 15.541C84.5689 15.366 84.356 15.051 84.2467 14.5999H81.9292C81.9612 15.0977 82.0969 15.5235 82.3324 15.8794C82.5679 16.2352 82.8637 16.5269 83.2198 16.7524C83.5759 16.978 83.9697 17.1452 84.4031 17.2522C84.8364 17.3591 85.2604 17.4135 85.6768 17.4135C86.6509 17.4135 87.4291 17.2774 88.0094 17.0072C88.5897 16.7349 89.0344 16.4044 89.3396 16.0155C89.6467 15.6247 89.8465 15.2047 89.9388 14.7516C90.0311 14.2985 90.0782 13.898 90.0782 13.548V5.34049H87.8605V6.51105H87.8285C87.544 6.0016 87.1898 5.63994 86.7677 5.42605C86.3457 5.21216 85.8558 5.10327 85.2962 5.10327C84.7046 5.10327 84.1808 5.22188 83.7267 5.4591C83.2726 5.69633 82.892 6.01522 82.5849 6.41772C82.2778 6.81827 82.046 7.28299 81.8858 7.80799C81.7276 8.33299 81.6484 8.87938 81.6484 9.44522C81.6484 10.0441 81.7163 10.6119 81.8538 11.1485C81.9914 11.6852 82.208 12.1558 82.5038 12.5563ZM84.0903 8.4691C84.1619 8.16966 84.2768 7.90327 84.4351 7.67188C84.5934 7.44049 84.7912 7.25577 85.0267 7.1216C85.2623 6.98549 85.5449 6.91744 85.8727 6.91744C86.2552 6.91744 86.5736 6.99133 86.8261 7.13716C87.0786 7.28494 87.2802 7.48133 87.4347 7.73022C87.5873 7.9791 87.6966 8.26494 87.7626 8.58577C87.8285 8.90855 87.8605 9.25077 87.8605 9.61244C87.8605 9.92938 87.8191 10.2308 87.7381 10.5205C87.6552 10.8083 87.5327 11.0669 87.3688 11.2924C87.2048 11.518 86.9957 11.6988 86.7451 11.8349C86.4945 11.971 86.2025 12.0391 85.8746 12.0391C85.5129 12.0391 85.2114 11.9594 84.9702 11.8019C84.7291 11.6444 84.535 11.4402 84.3861 11.1913C84.2373 10.9424 84.1337 10.6624 84.0734 10.3513C84.0131 10.0402 83.9829 9.72716 83.9829 9.41022C83.9829 9.09327 84.0187 8.76855 84.0903 8.4691Z" fill="#0739A4"/>
<path d="M39.4166 27.0329C38.9719 27.5306 38.3558 27.7795 37.5682 27.7795C36.9879 27.7795 36.4942 27.6629 36.0891 27.4315C35.6841 27.2001 35.3543 26.8909 35.1037 26.5079C34.8512 26.1229 34.6685 25.6912 34.5535 25.2109C34.4386 24.7306 34.3802 24.2368 34.3802 23.7273C34.3802 23.2179 34.4386 22.6812 34.5535 22.1834C34.6685 21.6856 34.8512 21.2423 35.1037 20.8515C35.3562 20.4606 35.6841 20.1515 36.0891 19.9181C36.4942 19.6868 36.9879 19.5701 37.5682 19.5701C37.8866 19.5701 38.19 19.6245 38.4802 19.7315C38.7703 19.8384 39.0303 19.9881 39.2602 20.1806C39.4901 20.3731 39.6823 20.5968 39.8349 20.8495C39.9875 21.1043 40.0873 21.3843 40.1307 21.6895H42.6291C42.5518 20.9895 42.3653 20.3673 42.0695 19.8248C41.7737 19.2823 41.3987 18.8273 40.9446 18.4598C40.4906 18.0923 39.9743 17.8123 39.3996 17.6198C38.825 17.4273 38.2145 17.332 37.5682 17.332C36.6695 17.332 35.8612 17.4954 35.1452 17.824C34.4273 18.1526 33.8225 18.6037 33.3288 19.1812C32.8352 19.7587 32.4584 20.4334 32.1946 21.2073C31.9308 21.9812 31.8008 22.8212 31.8008 23.7254C31.8008 24.6295 31.9327 25.4287 32.1946 26.1929C32.4584 26.9551 32.8352 27.6201 33.3288 28.1859C33.8225 28.7518 34.4273 29.1951 35.1452 29.5179C35.863 29.8406 36.6714 30.002 37.5682 30.002C38.2917 30.002 38.9531 29.8893 39.556 29.6637C40.1589 29.4381 40.6846 29.1095 41.1331 28.6798C41.5815 28.2501 41.9433 27.7309 42.2183 27.1204C42.4915 26.5098 42.663 25.8254 42.7271 25.069H40.2287C40.1307 25.8837 39.8594 26.539 39.4147 27.0368L39.4166 27.0329Z" fill="#0739A4"/>
<path d="M50.6166 21.987C50.2323 21.5865 49.7706 21.2754 49.228 21.0537C48.6854 20.832 48.0805 20.7231 47.4117 20.7231C46.7428 20.7231 46.1398 20.834 45.6047 21.0537C45.0678 21.2734 44.608 21.5845 44.2237 21.987C43.8393 22.3876 43.5435 22.8756 43.3362 23.4454C43.1271 24.017 43.0234 24.6529 43.0234 25.3529C43.0234 26.0529 43.1271 26.6868 43.3362 27.2526C43.5435 27.8184 43.8393 28.3006 44.2237 28.7031C44.6061 29.1037 45.0678 29.4129 45.6047 29.6268C46.1417 29.8406 46.7447 29.9495 47.4117 29.9495C48.0787 29.9495 48.6854 29.8426 49.228 29.6268C49.7706 29.4109 50.2323 29.1037 50.6166 28.7031C50.9991 28.3026 51.2949 27.8184 51.5041 27.2526C51.7113 26.6868 51.8168 26.0548 51.8168 25.3529C51.8168 24.6509 51.7132 24.017 51.5041 23.4454C51.2949 22.8737 51.001 22.3876 50.6166 21.987ZM49.3844 26.3795C49.3184 26.714 49.2054 27.0134 49.0471 27.2779C48.8889 27.5443 48.6741 27.7562 48.4065 27.9137C48.1371 28.0712 47.8073 28.1509 47.4117 28.1509C47.016 28.1509 46.6881 28.0712 46.4262 27.9137C46.1625 27.7562 45.9514 27.5443 45.7932 27.2779C45.6349 27.0115 45.5218 26.712 45.4559 26.3795C45.39 26.047 45.3579 25.7048 45.3579 25.3529C45.3579 25.0009 45.39 24.6568 45.4559 24.3184C45.5218 23.9801 45.633 23.6806 45.7932 23.4201C45.9514 23.1595 46.1625 22.9476 46.4262 22.7843C46.69 22.6209 47.0179 22.5393 47.4117 22.5393C47.8055 22.5393 48.1371 22.6209 48.4065 22.7843C48.6741 22.9476 48.8889 23.1595 49.0471 23.4201C49.2054 23.6806 49.3184 23.9801 49.3844 24.3184C49.4503 24.6568 49.4824 25.0029 49.4824 25.3529C49.4824 25.7029 49.4503 26.0451 49.3844 26.3795Z" fill="#0739A4"/>
<path d="M59.829 21.7168C59.5991 21.4057 59.2845 21.1626 58.885 20.9876C58.4856 20.8126 57.9731 20.7251 57.3494 20.7251C56.8558 20.7251 56.3734 20.8418 55.9043 21.0732C55.4332 21.3045 55.0489 21.6759 54.7549 22.1834H54.7059V20.9623H52.4883V29.7298H54.8209V25.1351C54.8209 24.2426 54.9641 23.6009 55.2486 23.2101C55.5331 22.8193 55.9928 22.6248 56.6297 22.6248C57.1893 22.6248 57.5774 22.8037 57.796 23.1595C58.0145 23.5154 58.1238 24.0559 58.1238 24.7793V29.7318H60.4564V24.3398C60.4564 23.7973 60.4093 23.3034 60.317 22.8562C60.2247 22.409 60.0626 22.0318 59.8328 21.7207L59.829 21.7168Z" fill="#0739A4"/>
<path d="M64.3004 18.3332H61.9678V20.9621H60.5547V22.5721H61.9678V27.7444C61.9678 28.1857 62.0394 28.5416 62.1807 28.8119C62.3239 29.0841 62.518 29.2921 62.7648 29.4399C63.0116 29.5877 63.2961 29.6849 63.6202 29.7374C63.9424 29.788 64.2853 29.8132 64.6471 29.8132C64.877 29.8132 65.1125 29.8074 65.3537 29.7957C65.5948 29.7841 65.8134 29.7627 66.0112 29.7277V27.863C65.902 27.8863 65.787 27.9019 65.6664 27.9135C65.5458 27.9252 65.4196 27.931 65.2877 27.931C64.8939 27.931 64.6301 27.863 64.4982 27.7269C64.3664 27.5907 64.3004 27.3205 64.3004 26.9121V22.5702H66.0093V20.9602H64.3004V18.3313V18.3332Z" fill="#0739A4"/>
<path d="M74.071 27.7795V23.2179C74.071 22.687 73.9561 22.2593 73.7262 21.9384C73.4964 21.6157 73.2006 21.3648 72.8388 21.184C72.477 21.0032 72.0776 20.8826 71.6386 20.8184C71.1996 20.7562 70.7681 20.7251 70.3404 20.7251C69.8693 20.7251 69.4002 20.7737 68.9348 20.869C68.4694 20.9643 68.0492 21.1257 67.6781 21.3532C67.305 21.5787 66.9979 21.8782 66.7586 22.2515C66.5174 22.6248 66.3799 23.0934 66.3478 23.6593H68.6804C68.7238 23.1848 68.8783 22.8445 69.1402 22.6423C69.404 22.4382 69.7638 22.337 70.2255 22.337C70.4327 22.337 70.6287 22.3507 70.8095 22.3798C70.9904 22.409 71.1487 22.4654 71.2862 22.549C71.4238 22.6345 71.5331 22.7532 71.6141 22.9048C71.697 23.0584 71.7366 23.2645 71.7366 23.5232C71.7479 23.772 71.6763 23.9607 71.5236 24.0909C71.371 24.2212 71.1619 24.3204 70.9 24.3884C70.6362 24.4565 70.3347 24.507 69.9956 24.542C69.6564 24.5751 69.3116 24.6218 68.9612 24.6782C68.6107 24.7345 68.2622 24.8104 67.9173 24.9076C67.5725 25.0029 67.2654 25.1487 66.9979 25.3393C66.7303 25.5318 66.5099 25.7884 66.3403 26.1112C66.1707 26.434 66.0859 26.8443 66.0859 27.3401C66.0859 27.7932 66.1594 28.182 66.3083 28.5107C66.4552 28.8393 66.6625 29.1095 66.9244 29.3254C67.1882 29.5412 67.4934 29.6987 67.8439 29.7998C68.1943 29.9009 68.573 29.9534 68.9781 29.9534C69.5038 29.9534 70.0182 29.8737 70.5232 29.7162C71.0262 29.5587 71.4652 29.2807 71.8383 28.8859C71.8496 29.0337 71.8684 29.1776 71.8967 29.3176C71.9231 29.4595 71.9589 29.5976 72.0041 29.7337H74.3706C74.2613 29.5529 74.1841 29.2826 74.1407 28.919C74.0974 28.5573 74.0748 28.1782 74.0748 27.7834L74.071 27.7795ZM71.7366 26.3368C71.7366 26.4729 71.7234 26.6537 71.6951 26.8793C71.6668 27.1048 71.5934 27.3284 71.4728 27.5482C71.3522 27.7679 71.1657 27.9584 70.9132 28.1159C70.6607 28.2734 70.3046 28.3532 69.8448 28.3532C69.6583 28.3532 69.4774 28.3357 69.3022 28.3026C69.127 28.2695 68.9725 28.2093 68.8425 28.1237C68.7106 28.0382 68.607 27.9234 68.5297 27.7757C68.4525 27.6298 68.4148 27.447 68.4148 27.2332C68.4148 27.0076 68.4525 26.8209 68.5297 26.6732C68.607 26.5254 68.7068 26.4048 68.8331 26.3076C68.9593 26.2123 69.1063 26.1345 69.2758 26.0782C69.4454 26.0218 69.6188 25.977 69.794 25.942C69.9805 25.909 70.167 25.8798 70.3517 25.8565C70.5382 25.8332 70.7153 25.8059 70.8868 25.7709C71.0564 25.7379 71.2146 25.6951 71.3635 25.6445C71.5105 25.594 71.6348 25.524 71.7328 25.4326V26.3309L71.7366 26.3368Z" fill="#0739A4"/>
<path d="M77.4654 17.6216H75.1328V19.6049H77.4654V17.6216Z" fill="#0739A4"/>
<path d="M77.4654 20.9622H75.1328V29.7297H77.4654V20.9622Z" fill="#0739A4"/>
<path d="M85.8543 21.7168C85.6245 21.4057 85.3098 21.1626 84.9104 20.9876C84.5109 20.8126 83.9984 20.7251 83.3729 20.7251C82.8792 20.7251 82.3969 20.8418 81.9277 21.0732C81.4567 21.3045 81.0723 21.6759 80.7784 22.1834H80.7294V20.9623H78.5117V29.7298H80.8443V25.1351C80.8443 24.2426 80.9875 23.6009 81.272 23.2101C81.5565 22.8193 82.0163 22.6248 82.6531 22.6248C83.2127 22.6248 83.6009 22.8037 83.8194 23.1595C84.038 23.5154 84.1473 24.0559 84.1473 24.7793V29.7318H86.4799V24.3398C86.4799 23.7973 86.4328 23.3034 86.3404 22.8562C86.2481 22.409 86.0861 22.0318 85.8562 21.7207L85.8543 21.7168Z" fill="#0739A4"/>
<path d="M94.6045 22.3176C94.2597 21.8315 93.8188 21.4445 93.2819 21.1568C92.7449 20.869 92.1156 20.7251 91.392 20.7251C90.7458 20.7251 90.1579 20.8437 89.6266 21.0809C89.0952 21.3182 88.6374 21.6429 88.2549 22.0551C87.8724 22.4673 87.5747 22.9573 87.3675 23.5212C87.1583 24.087 87.0547 24.6976 87.0547 25.3529C87.0547 26.0082 87.1564 26.6537 87.358 27.2176C87.5615 27.7834 87.8479 28.2695 88.221 28.6759C88.5941 29.0823 89.0481 29.3973 89.5851 29.617C90.1221 29.8368 90.725 29.9476 91.392 29.9476C92.3567 29.9476 93.1782 29.722 93.8565 29.269C94.5348 28.8179 95.0398 28.0654 95.3676 27.0134H93.3139C93.2366 27.2857 93.0294 27.5423 92.6902 27.7854C92.3511 28.0284 91.946 28.1509 91.4749 28.1509C90.8174 28.1509 90.3143 27.9759 89.9638 27.6259C89.6134 27.2759 89.4212 26.7101 89.3892 25.9304H95.5184C95.5617 25.2518 95.5071 24.6023 95.3544 23.9801C95.2018 23.3579 94.9512 22.8037 94.6064 22.3176H94.6045ZM89.3873 24.404C89.3986 24.2348 89.4344 24.0423 89.4947 23.8265C89.555 23.6126 89.6586 23.4084 89.8075 23.2159C89.9563 23.0234 90.1523 22.862 90.3991 22.7318C90.6459 22.6015 90.9549 22.5373 91.328 22.5373C91.897 22.5373 92.3228 22.6948 92.6017 23.0118C92.8805 23.3287 93.0746 23.7915 93.1858 24.402H89.391L89.3873 24.404Z" fill="#0739A4"/>
<path d="M101.051 20.7251C100.755 20.7251 100.471 20.7698 100.195 20.8612C99.9222 20.9526 99.6641 21.079 99.4229 21.2423C99.1818 21.4056 98.9688 21.604 98.7823 21.8354C98.5958 22.0668 98.4488 22.3195 98.3395 22.5898H98.3075V20.9623H96.0898V29.7298H98.4224V25.7787C98.4224 25.384 98.4601 25.0165 98.5374 24.6762C98.6146 24.3379 98.7427 24.0404 98.9236 23.7856C99.1045 23.5309 99.3419 23.3306 99.6396 23.1829C99.9354 23.0351 100.297 22.9631 100.723 22.9631C100.866 22.9631 101.013 22.9709 101.168 22.9884C101.32 23.0059 101.452 23.0254 101.561 23.0468V20.8087C101.375 20.7523 101.205 20.7231 101.053 20.7231L101.051 20.7251Z" fill="#0739A4"/>
</g>
<defs>
<clipPath id="clip0_228_24822">
<rect width="101.561" height="30.475" fill="white" transform="translate(0 0.762451)"/>
</clipPath>
</defs>
</svg>
