<svg version="1.1" id="Layer_1" xmlns="http://www.w3.org/2000/svg" xmlns:xlink="http://www.w3.org/1999/xlink" x="0px" y="0px"
	 width="100%" viewBox="0 0 2560 1707" enable-background="new 0 0 2560 1707" xml:space="preserve">
<path fill="#007A3D" opacity="1.000000" stroke="none" 
	d="
M1.999999,572.000000 
	C2.000000,382.043091 2.000000,192.086212 2.000000,2.064654 
	C855.096680,2.064654 1708.193359,2.064654 2562.000000,2.064654 
	C2562.000000,191.386475 2562.000000,380.773834 2561.093750,570.841431 
	C2557.855469,571.494934 2555.523438,571.444946 2553.191162,571.444946 
	C1706.105347,571.441589 859.019531,571.440918 11.933693,571.464539 
	C8.622456,571.464600 5.311229,571.813843 1.999999,572.000000 
z"/>
<path fill="#000000" opacity="1.000000" stroke="none" 
	d="
M2562.000000,1142.000000 
	C2562.000000,1331.290405 2562.000000,1520.580688 2562.000000,1709.935547 
	C1708.903320,1709.935547 855.806519,1709.935547 2.000000,1709.935547 
	C2.000000,1521.280273 2.000000,1332.559570 2.901810,1142.919434 
	C856.535767,1142.000000 1709.267822,1142.000000 2562.000000,1142.000000 
z"/>
<path fill="#FFFFFF" opacity="1.000000" stroke="none" 
	d="
M1.999999,572.932007 
	C5.311229,571.813843 8.622456,571.464600 11.933693,571.464539 
	C859.019531,571.440918 1706.105347,571.441589 2553.191162,571.444946 
	C2555.523438,571.444946 2557.855469,571.494934 2561.093750,571.760803 
	C2562.000000,760.711914 2562.000000,949.423828 2561.098145,1139.068359 
	C1707.464233,1140.000610 854.732117,1140.000244 2.000000,1140.000000 
	C2.000000,951.288025 2.000000,762.576111 1.999999,572.932007 
M780.259094,1066.703003 
	C780.541992,1066.577026 780.824951,1066.451050 781.107910,1066.325073 
	C780.678345,1066.290771 780.248718,1066.256348 780.465820,1064.694702 
	C779.971313,1062.763306 779.582764,1060.797241 778.966614,1058.905518 
	C764.232361,1013.666382 749.464294,968.438232 734.731689,923.198547 
	C732.892517,917.551025 731.218140,911.849731 729.332458,905.735413 
	C774.768982,872.755249 819.832703,840.045654 864.896362,807.336060 
	C864.656189,806.681274 864.416077,806.026489 864.175903,805.371704 
	C808.379089,805.371704 752.582275,805.371704 696.575684,805.371704 
	C678.962769,751.223450 661.615051,697.890503 644.267334,644.557556 
	C643.711670,644.651917 643.156067,644.746216 642.600403,644.840515 
	C625.171021,698.422913 607.741638,752.005310 590.182922,805.985229 
	C533.595642,805.985229 478.173950,805.985229 420.364441,805.985229 
	C467.382019,840.206360 512.440186,873.001343 557.652344,905.908386 
	C540.516724,959.955200 522.686707,1012.849487 507.508911,1066.857056 
	C552.740112,1034.046265 597.971313,1001.235535 643.303467,968.351501 
	C645.299683,969.684998 646.987549,970.732056 648.591003,971.895386 
	C689.569275,1001.626099 730.528015,1031.383789 771.535034,1061.074951 
	C774.161316,1062.976562 777.149658,1064.378296 780.259094,1066.703003 
M2060.258789,1066.702881 
	C2060.541992,1066.577148 2060.824951,1066.451416 2061.108154,1066.325684 
	C2060.678711,1066.290771 2060.249023,1066.255859 2060.465820,1064.693604 
	C2059.852783,1062.450684 2059.331543,1060.177856 2058.613525,1057.969116 
	C2043.387695,1011.138855 2028.135742,964.317139 2012.903320,917.489014 
	C2011.682983,913.737366 2010.566772,909.951721 2009.278687,905.782166 
	C2054.777344,872.750122 2099.836182,840.037598 2144.894775,807.325134 
	C2144.654053,806.672363 2144.413330,806.019592 2144.172607,805.366821 
	C2088.370361,805.366821 2032.568359,805.366821 1976.561768,805.366821 
	C1958.952026,751.221436 1941.605591,697.885864 1924.259155,644.550232 
	C1923.709717,644.647095 1923.160156,644.743896 1922.610718,644.840759 
	C1905.168335,698.421509 1887.725952,752.002319 1870.150879,805.991028 
	C1813.568115,805.991028 1758.147461,805.991028 1700.342651,805.991028 
	C1747.367676,840.215027 1792.430420,873.010864 1837.628174,905.904968 
	C1820.534790,959.961853 1802.644531,1012.837219 1787.501465,1066.848877 
	C1832.734863,1034.041504 1877.968262,1001.234131 1923.304077,968.352417 
	C1925.296997,969.683533 1926.984985,970.730286 1928.588501,971.893555 
	C1969.567627,1001.625000 2010.527100,1031.383301 2051.535156,1061.075073 
	C2054.161377,1062.976562 2057.149902,1064.377686 2060.258789,1066.702881 
M1420.259155,1066.702881 
	C1420.541992,1066.577026 1420.824951,1066.451050 1421.107788,1066.325195 
	C1420.678345,1066.290771 1420.248779,1066.256470 1420.465942,1064.695068 
	C1419.947510,1062.771118 1419.512817,1060.819824 1418.898193,1058.927124 
	C1407.084351,1022.540527 1395.241699,986.163330 1383.422363,949.778442 
	C1378.714111,935.284424 1374.047607,920.776855 1369.263428,905.970032 
	C1414.839355,872.816711 1459.871582,840.058838 1504.903931,807.300964 
	C1504.655884,806.641479 1504.407837,805.981995 1504.159790,805.322510 
	C1448.352783,805.322510 1392.545898,805.322510 1336.548584,805.322510 
	C1318.933105,751.181274 1301.580444,697.848022 1284.227905,644.514771 
	C1283.687134,644.620422 1283.146362,644.726074 1282.605591,644.831726 
	C1265.247192,698.185974 1247.888916,751.540222 1230.249146,805.759399 
	C1174.071411,805.759399 1118.388062,805.759399 1062.704712,805.759399 
	C1062.561157,806.337097 1062.417603,806.914795 1062.274048,807.492493 
	C1107.363159,840.266785 1152.452271,873.041077 1197.650757,905.894836 
	C1180.461914,959.975159 1162.665894,1012.864685 1147.491211,1066.840210 
	C1192.731567,1034.039429 1237.971802,1001.238708 1283.392578,968.307068 
	C1286.417114,970.423523 1289.159546,972.281799 1291.839111,974.226624 
	C1331.734253,1003.181030 1371.610107,1032.162231 1411.535278,1061.075073 
	C1414.161377,1062.976929 1417.149902,1064.378418 1420.259155,1066.702881 
z"/>
<path fill="#3F0000" opacity="1.000000" stroke="none" 
	d="
M2.000000,1140.500000 
	C854.732117,1140.000244 1707.464233,1140.000610 2561.098145,1140.000488 
	C2562.000000,1140.000000 2562.000000,1141.000000 2562.000000,1141.500000 
	C1709.267822,1142.000000 856.535767,1142.000000 2.901810,1142.000000 
	C2.000000,1142.000000 2.000000,1141.000000 2.000000,1140.500000 
z"/>
<path fill="#CE1327" opacity="1.000000" stroke="none" 
	d="
M1419.969849,1066.012573 
	C1417.149902,1064.378418 1414.161377,1062.976929 1411.535278,1061.075073 
	C1371.610107,1032.162231 1331.734253,1003.181030 1291.839111,974.226624 
	C1289.159546,972.281799 1286.417114,970.423523 1283.392578,968.307068 
	C1237.971802,1001.238708 1192.731567,1034.039429 1147.491211,1066.840210 
	C1162.665894,1012.864685 1180.461914,959.975159 1197.650757,905.894836 
	C1152.452271,873.041077 1107.363159,840.266785 1062.274048,807.492493 
	C1062.417603,806.914795 1062.561157,806.337097 1062.704712,805.759399 
	C1118.388062,805.759399 1174.071411,805.759399 1230.249146,805.759399 
	C1247.888916,751.540222 1265.247192,698.185974 1282.605591,644.831726 
	C1283.146362,644.726074 1283.687134,644.620422 1284.227905,644.514771 
	C1301.580444,697.848022 1318.933105,751.181274 1336.548584,805.322510 
	C1392.545898,805.322510 1448.352783,805.322510 1504.159790,805.322510 
	C1504.407837,805.981995 1504.655884,806.641479 1504.903931,807.300964 
	C1459.871582,840.058838 1414.839355,872.816711 1369.263428,905.970032 
	C1374.047607,920.776855 1378.714111,935.284424 1383.422363,949.778442 
	C1395.241699,986.163330 1407.084351,1022.540527 1418.898193,1058.927124 
	C1419.512817,1060.819824 1419.947510,1062.771118 1420.180786,1065.406616 
	C1419.895630,1066.118164 1419.969849,1066.012573 1419.969849,1066.012573 
z"/>
<path fill="#CE1327" opacity="1.000000" stroke="none" 
	d="
M2059.969971,1066.011597 
	C2057.149902,1064.377686 2054.161377,1062.976562 2051.535156,1061.075073 
	C2010.527100,1031.383301 1969.567627,1001.625000 1928.588501,971.893555 
	C1926.984985,970.730286 1925.296997,969.683533 1923.304077,968.352417 
	C1877.968262,1001.234131 1832.734863,1034.041504 1787.501465,1066.848877 
	C1802.644531,1012.837219 1820.534790,959.961853 1837.628174,905.904968 
	C1792.430420,873.010864 1747.367676,840.215027 1700.342651,805.991028 
	C1758.147461,805.991028 1813.568115,805.991028 1870.150879,805.991028 
	C1887.725952,752.002319 1905.168335,698.421509 1922.610718,644.840759 
	C1923.160156,644.743896 1923.709717,644.647095 1924.259155,644.550232 
	C1941.605591,697.885864 1958.952026,751.221436 1976.561768,805.366821 
	C2032.568359,805.366821 2088.370361,805.366821 2144.172607,805.366821 
	C2144.413330,806.019592 2144.654053,806.672363 2144.894775,807.325134 
	C2099.836182,840.037598 2054.777344,872.750122 2009.278687,905.782166 
	C2010.566772,909.951721 2011.682983,913.737366 2012.903320,917.489014 
	C2028.135742,964.317139 2043.387695,1011.138855 2058.613525,1057.969116 
	C2059.331543,1060.177856 2059.852783,1062.450684 2060.180664,1065.405273 
	C2059.895752,1066.116943 2059.969971,1066.011597 2059.969971,1066.011597 
z"/>
<path fill="#CE1327" opacity="1.000000" stroke="none" 
	d="
M779.969604,1066.012573 
	C777.149658,1064.378296 774.161316,1062.976562 771.535034,1061.074951 
	C730.528015,1031.383789 689.569275,1001.626099 648.591003,971.895386 
	C646.987549,970.732056 645.299683,969.684998 643.303467,968.351501 
	C597.971313,1001.235535 552.740112,1034.046265 507.508911,1066.857056 
	C522.686707,1012.849487 540.516724,959.955200 557.652344,905.908386 
	C512.440186,873.001343 467.382019,840.206360 420.364441,805.985229 
	C478.173950,805.985229 533.595642,805.985229 590.182922,805.985229 
	C607.741638,752.005310 625.171021,698.422913 642.600403,644.840515 
	C643.156067,644.746216 643.711670,644.651917 644.267334,644.557556 
	C661.615051,697.890503 678.962769,751.223450 696.575684,805.371704 
	C752.582275,805.371704 808.379089,805.371704 864.175903,805.371704 
	C864.416077,806.026489 864.656189,806.681274 864.896362,807.336060 
	C819.832703,840.045654 774.768982,872.755249 729.332458,905.735413 
	C731.218140,911.849731 732.892517,917.551025 734.731689,923.198547 
	C749.464294,968.438232 764.232361,1013.666382 778.966614,1058.905518 
	C779.582764,1060.797241 779.971313,1062.763306 780.180542,1065.406372 
	C779.895325,1066.118042 779.969604,1066.012573 779.969604,1066.012573 
z"/>
<path fill="#CE1327" opacity="1.000000" stroke="none" 
	d="
M779.857239,1066.170044 
	C780.248718,1066.256348 780.678345,1066.290771 781.107910,1066.324951 
	C780.824951,1066.451050 780.541992,1066.577026 780.114380,1066.357788 
	C779.969604,1066.012573 779.895325,1066.118042 779.857239,1066.170044 
z"/>
<path fill="#CE1327" opacity="1.000000" stroke="none" 
	d="
M1419.857422,1066.170166 
	C1420.248779,1066.256470 1420.678345,1066.290771 1421.107788,1066.325195 
	C1420.824951,1066.451050 1420.541992,1066.577026 1420.114502,1066.357666 
	C1419.969849,1066.012573 1419.895630,1066.118164 1419.857422,1066.170166 
z"/>
<path fill="#CE1327" opacity="1.000000" stroke="none" 
	d="
M2059.857666,1066.168945 
	C2060.249023,1066.255859 2060.678711,1066.290771 2061.108154,1066.325684 
	C2060.824951,1066.451416 2060.541992,1066.577148 2060.114258,1066.357178 
	C2059.969971,1066.011597 2059.895752,1066.116943 2059.857666,1066.168945 
z"/>
</svg>