<?xml version="1.0" encoding="UTF-8"?>
<svg id="Layer_2" data-name="Layer 2" xmlns="http://www.w3.org/2000/svg" version="1.1" viewBox="0 0 141 42">
  <defs>
    <style>
      .cls-1 {
        fill: #1aa3ff;
        stroke-width: 0px;
      }
    </style>
  </defs>
  <g id="Layer_1-2" data-name="Layer 1-2">
    <g>
      <path id="R3NkVv" class="cls-1" d="M29,12.5c-.9.5-1.8,1-2.6,1.5-.1,0-.4,0-.6-.2-3-1.8-6-3.6-9-5.4-.4-.2-.7-.3-1.1,0-3.4,2.1-6.8,4.1-10.2,6.1-.4.2-.5.5-.5.9,0,3.7,0,7.5,0,11.2,0,.4.1.6.5.8,3.4,2.1,6.9,4.1,10.3,6.2.3.2.6.2.9,0,3.5-2.1,7-4.3,10.6-6.4.1,0,.4-.1.5,0,.7.4,1.5.8,2.3,1.3-.3.3-.6.7-.9.9-3.9,2.4-7.9,4.8-11.8,7.2-.7.5-1.5.4-2.2,0-3.9-2.4-7.8-4.7-11.7-7.1-.8-.5-1.1-1.1-1.1-2.1,0-4.3,0-8.6,0-12.8,0-1,.4-1.6,1.2-2.1,3.8-2.3,7.7-4.6,11.5-7,.8-.5,1.6-.6,2.5,0,3.7,2.2,7.4,4.5,11.1,6.7.1,0,.3.2.5.3ZM20.9,24c-1.4.9-2.9,1.8-4.3,2.7-.3.2-.5.2-.8,0-1.4-.9-2.8-1.8-4.3-2.6-.3-.2-.4-.4-.4-.7,0-1.6,0-3.2,0-4.8,0-.2.2-.6.4-.7,1.4-.9,2.9-1.8,4.3-2.7.3-.2.5-.2.8,0,1.1.7,2.2,1.4,3.4,2.1.2.1.5.2.6.2.9-.5,1.7-1,2.6-1.5-.1-.1-.1-.2-.2-.2-2-1.2-4-2.5-6-3.7-.5-.3-1-.3-1.5,0-2.1,1.3-4.3,2.6-6.4,3.9-.5.3-.8.8-.7,1.4,0,2.4,0,4.8,0,7.2,0,.6.2,1,.7,1.3,2.1,1.3,4.3,2.6,6.4,3.9.6.3,1.2.3,1.7,0,2-1.2,4.1-2.5,6.1-3.7.2-.1.4-.3.6-.5.2-.2.2-.4,0-.6-.8-.4-1.5-.9-2.3-1.3-.2.2-.4.4-.6.5h0ZM27.8,24.2v-7.9c-2.3,1.3-4.5,2.6-6.8,4,2.4,1.4,4.5,2.6,6.8,4Z"/>
      <path class="cls-1" d="M40.9,22.8c0,.8-.3,1.3-1,1.8-.6.4-1.3.6-2.2.6h-4.4v-.4h.8v-8.3h-.8v-.6h3.9c.9,0,1.6.2,2.3.5.7.4,1.1.9,1.1,1.7s-.4,1.4-1.2,1.8c-.3.1-.7.3-1.2.4.1,0,.4,0,.7.2.6.2,1,.5,1.4.8.5.5.8,1,.8,1.6h0ZM38.7,18.2c0-.6-.1-1-.4-1.3-.3-.3-.9-.5-1.6-.5s-.4,0-.5,0-.3,0-.5,0v3.4h.8c.6,0,1.1-.1,1.5-.3.4-.3.7-.8.7-1.4h0ZM39.1,22.8c0-.8-.3-1.5-.8-1.9-.5-.4-1.1-.5-1.9-.5h-.7v4.2h1.3c.6,0,1-.1,1.4-.4.4-.3.6-.8.6-1.4h0ZM47.8,22.1c0,.9-.3,1.7-.8,2.3-.5.7-1.2,1-2.1,1s-1.6-.3-2.1-1c-.5-.7-.8-1.5-.8-2.4s.3-1.6.8-2.3c.6-.7,1.3-1,2.1-1s1.5.3,2,1c.6.7.8,1.4.8,2.3h0ZM46.2,22.2c0-.8,0-1.5-.2-1.9-.2-.7-.6-1-1.1-1s-.7.2-.9.5c-.3.4-.4,1.2-.4,2.2s.1,1.8.4,2.3c.2.4.5.6.9.6h.1c.5,0,.9-.4,1-1,.1-.4.2-1,.2-1.8h0ZM54.5,22.1c0,.9-.3,1.7-.8,2.3-.5.7-1.2,1-2.1,1s-1.6-.3-2.1-1c-.5-.7-.8-1.5-.8-2.4s.3-1.6.8-2.3c.6-.7,1.3-1,2.1-1s1.5.3,2,1c.6.7.8,1.4.8,2.3h0ZM52.9,22.2c0-.8,0-1.5-.2-1.9-.2-.7-.6-1-1.1-1s-.7.2-.9.5c-.3.4-.4,1.2-.4,2.2s.1,1.8.4,2.3c.2.4.5.6.9.6h.1c.5,0,.9-.4,1-1,.1-.4.2-1,.2-1.8h0ZM61.7,25.2h-2.7v-.4h.6c0,0-1.5-2.8-1.5-2.8l-.6,1v1.7h.6v.5h-2.6v-.5h.6v-7.8c0-.2,0-.3,0-.3,0,0,0-.1-.2-.2,0,0-.2,0-.3,0s-.1,0-.2,0c0,0,0,0-.1,0v-.4l2.2-.9v6.8l.7-1c.4-.6.8-1.1,1.1-1.5.4-.5.9-.7,1.2-.7s.4,0,.5.2c.1.1.2.3.2.5s0,.4-.2.5c-.2.1-.4.2-.6.2s-.3,0-.5-.1-.3-.1-.3-.1c-.2,0-.3,0-.4.2l-.4.5,2.3,3.9h.5c0,0,0,.5,0,.5h0ZM65.6,25.2h-2.9v-.4h.7v-4.3c0-.2,0-.3,0-.4,0-.1,0-.2-.2-.3s-.2-.1-.3-.1c0,0-.2,0-.3,0h-.1s0,0,0,0v-.4l2.3-.7v6h.8c0,0,0,.5,0,.5h0ZM64.9,16.8c0,.2,0,.4-.3.6-.2.2-.4.2-.6.2s-.4,0-.6-.2-.3-.3-.3-.6,0-.4.3-.6c.2-.2.4-.3.6-.3s.4,0,.6.2c.2.2.3.4.3.6ZM72.7,25.2h-2.6v-.4h.6v-3.8c0-.3,0-.6-.2-.9-.2-.3-.4-.4-.7-.4s-.4,0-.5,0c-.2,0-.3.2-.5.3l-.3.3v4.3h.6v.5h-2.7v-.5h.7v-4.2c0-.2,0-.3,0-.4s0-.2-.2-.3c0,0-.1,0-.2,0,0,0-.2,0-.2,0h-.2v-.4l1.6-.7c.2.2.3.4.4.6,0,.1.1.3.1.4s0,.2,0,.3c0-.2.3-.4.6-.6.4-.3.8-.5,1.2-.5s.9.2,1.3.6c.3.4.5.9.5,1.4v3.9h.6c0,0,0,.5,0,.5h0ZM79.8,18.2c0,.2,0,.3-.2.5-.2.1-.3.2-.5.2s-.3,0-.5-.2c0,0-.2-.1-.3-.2-.1,0-.2.1-.4.2-.1,0-.2.2-.3.3.4.2.6.3.8.5.6.4.8,1,.8,1.6s-.3,1.2-.8,1.7c-.5.4-1.1.7-1.8.7s-.3,0-.5,0c-.1,0-.2,0-.4,0l-.3.2c-.1,0-.2.1-.2.1-.1,0-.2.2-.2.3s0,.1.2.2c.1,0,.3,0,.4,0h2.2c.5.1.9.3,1.3.5.4.3.6.7.6,1.2s-.3,1.1-1,1.4c-.5.2-1.2.3-2.1.3s-1.6,0-2-.1c-.7-.2-1.1-.5-1.1-1s.1-.4.4-.6c.3-.3.6-.5.8-.6-.2,0-.4,0-.5-.1-.3-.1-.5-.3-.5-.6s.1-.4.4-.6c0,0,.3-.2.8-.6l.3-.2h-.2c-.3-.3-.6-.6-.8-.9-.2-.3-.3-.6-.3-1,0-.6.3-1.2.8-1.6.5-.4,1.1-.6,1.8-.6h.4c.3-.2.5-.5.7-.6.5-.4,1-.6,1.4-.6s.4,0,.6.2c.2.1.2.3.2.5h0ZM78.5,26.1c0-.2-.1-.4-.3-.5s-.4-.2-.7-.2l-2.1-.2-.3.2c-.1,0-.3.2-.3.3,0,.1-.1.3-.1.4,0,.4.3.6.9.7.3,0,.6,0,.9,0,.6,0,1,0,1.3-.1.5-.1.7-.4.7-.7h0ZM77.7,21.1c0-.5,0-.9-.2-1.2-.2-.4-.5-.6-.9-.6s-.7.2-.9.6c-.2.3-.2.7-.2,1.2s0,.9.2,1.2c.2.4.5.6.9.6s.7-.2.9-.6c.2-.3.2-.7.2-1.2h0ZM91,22.6v.3c-.4.7-.8,1.3-1.4,1.7-.6.4-1.3.6-2,.6-1.2,0-2.1-.5-2.8-1.4-.7-.8-1-1.9-1-3.1s.3-2.5,1-3.5c.7-1,1.7-1.6,2.8-1.6s.6,0,1.3.2c.3,0,.4,0,.5,0,.3,0,.5,0,.5,0,0,0,.2,0,.4-.2l.6,2.8h-.5c0,.1-.2-.2-.2-.2-.4-.7-.8-1.2-1.1-1.5-.4-.4-1-.6-1.5-.6s-1.3.4-1.8,1.2c-.4.7-.6,1.5-.6,2.4s.2,2.1.7,3c.5,1,1.3,1.5,2.2,1.5s.9-.1,1.3-.4c.4-.3.7-.6.9-1.1v-.3c.1,0,.6.2.6.2h0ZM97.7,22.1c0,.9-.3,1.7-.8,2.3-.5.7-1.2,1-2.1,1s-1.6-.3-2.1-1c-.5-.7-.8-1.5-.8-2.4s.3-1.6.8-2.3c.6-.7,1.3-1,2.1-1s1.5.3,2,1c.6.7.8,1.4.8,2.3h0ZM96.1,22.2c0-.8,0-1.5-.2-1.9-.2-.7-.6-1-1.1-1s-.7.2-.9.5c-.3.4-.4,1.2-.4,2.2s.1,1.8.4,2.3c.2.4.5.6.9.6h.1c.5,0,.9-.4,1-1,.1-.4.2-1,.2-1.8h0ZM104.8,25.2h-2.6v-.4h.6v-3.8c0-.3,0-.6-.2-.9s-.4-.4-.7-.4-.4,0-.5,0c-.2,0-.3.2-.5.3l-.3.3v4.3h.6v.5h-2.7v-.5h.7v-4.2c0-.2,0-.3,0-.4,0,0,0-.2-.2-.3,0,0-.1,0-.2,0,0,0-.2,0-.2,0h-.2v-.4l1.6-.7c.2.2.3.4.4.6,0,.1.1.3.1.4s0,.2,0,.3c0-.2.3-.4.6-.6.4-.3.8-.5,1.2-.5s.9.2,1.3.6c.3.4.5.9.5,1.4v3.9h.6c0,0,0,.5,0,.5h0ZM110.2,24.5l-.2.2c-.3.3-.5.5-.8.6-.3.1-.5.2-.8.2-.5,0-.8-.1-1.1-.4-.3-.3-.4-.6-.4-1v-4.2h-.9v-.7h.9v-1.8l1.4-.7v2.6h1.5v.7h-1.5v4c0,.2,0,.4.2.6.1.2.3.3.5.3.1,0,.2,0,.3,0s.2-.1.4-.3l.2-.2.2.4h0ZM116.6,24.7c-.1.2-.2.3-.3.4-.3.3-.6.4-1,.4s-.5,0-.6-.2c-.2-.1-.3-.3-.4-.6l-.3.2c-.2.2-.5.4-.7.4-.2,0-.5.1-.8.1-.4,0-.8-.2-1.1-.5-.3-.3-.5-.7-.5-1.1s.3-1.1.9-1.6c.5-.4,1.2-.8,2-1h.3v-.7c0-.3-.1-.6-.3-.9-.1-.1-.3-.2-.5-.3,0,0-.2,0-.3,0,0,.2,0,.4-.2.6-.2.3-.5.4-.7.4s-.4,0-.5-.2c-.2-.1-.2-.3-.2-.5s.1-.4.3-.6.5-.2.8-.2c.9,0,1.6.2,2.2.6.6.4.9,1,.9,1.7v3c0,.2,0,.3.1.4s.2.2.3.2.2,0,.3-.2c0,0,0,0,0,0l.2.3h0ZM114.2,24.1v-2.5h-.3c-.5.2-.9.4-1.2.7s-.5.7-.5,1.1.1.5.3.7c.2.2.4.3.7.3s.4,0,.5-.2c.2-.1.3-.2.4-.3h0ZM120.2,25.2h-2.9v-.4h.7v-4.3c0-.2,0-.3,0-.4s0-.2-.2-.3c0,0-.2-.1-.3-.1,0,0-.2,0-.3,0h-.1s0,0,0,0v-.4l2.3-.7v6h.8v.5h0ZM119.5,16.8c0,.2,0,.4-.3.6-.2.2-.4.2-.6.2s-.4,0-.6-.2-.3-.3-.3-.6,0-.4.3-.6c.2-.2.4-.3.6-.3s.4,0,.6.2c.2.2.3.4.3.6ZM127.2,25.2h-2.6v-.4h.6v-3.8c0-.3,0-.6-.2-.9s-.4-.4-.7-.4-.4,0-.5,0c-.2,0-.3.2-.5.3l-.3.3v4.3h.6v.5h-2.7v-.5h.7v-4.2c0-.2,0-.3,0-.4,0,0,0-.2-.2-.3,0,0-.1,0-.2,0,0,0-.2,0-.2,0h-.2v-.4l1.6-.7c.2.2.3.4.4.6,0,.1.1.3.1.4s0,.2,0,.3c0-.2.3-.4.6-.6.4-.3.8-.5,1.2-.5s.9.2,1.3.6c.3.4.5.9.5,1.4v3.9h.6c0,0,0,.5,0,.5h0ZM133.6,23.9l-.2.3c-.3.4-.7.8-1.1,1s-.8.3-1.3.3c-.8,0-1.4-.3-1.9-.9s-.8-1.3-.8-2.2.2-1.7.7-2.4c.5-.7,1.2-1.1,2-1.1s1.2.2,1.7.7c.5.5.7,1,.8,1.7l-3.8,1c.1.5.2.9.4,1.1.4.7.9,1.1,1.6,1.1s1-.2,1.4-.7l.2-.2.4.3h0ZM132,20.4c0-.3-.1-.6-.3-.8s-.5-.3-.8-.3c-.5,0-.8.2-1,.7-.2.4-.3.9-.3,1.5v.3l1.4-.4c.4-.1.6-.2.7-.3.2-.2.3-.4.3-.7h0ZM138.8,19.5c0,.3,0,.5-.3.6-.2.2-.4.2-.7.2s-.3,0-.5-.1c0,0,0,0-.1,0,0,.1-.1.2-.1.2-.1.2-.2.4-.2.5s0,.3-.1.4c0,.4-.1.7-.1,1.1v2.2h.7v.5h-2.9v-.4h.7v-3.3c0-.3,0-.6-.1-.9,0-.3-.2-.5-.2-.7,0,0-.1-.1-.3-.2-.1,0-.2,0-.2,0v-.4l1.5-.6c.1.3.2.4.2.4,0,.1.1.3.2.5s0,.4.1.6c0,.2,0,.4,0,.6v-.4c.3-.4.5-.8.7-1.1.3-.3.6-.5.9-.5s.5,0,.6.2c.1.1.2.3.2.5h0Z"/>
    </g>
  </g>
</svg>